<svg xmlns="http://www.w3.org/2000/svg"><symbol id="icon-beamed-note" viewBox="0 0 20 20"><path d="M17 1l-.002 13c0 1.243-1.301 3-3.748 3-1.243 0-2.25-.653-2.25-1.875 0-1.589 1.445-2.55 3-2.55.432 0 .754.059 1 .123V5.364L8 6.637V16h-.002c0 1.243-1.301 3-3.748 3C3.007 19 2 18.347 2 17.125c0-1.589 1.445-2.55 3-2.55.432 0 .754.059 1 .123V3l11-2z"/></symbol><symbol id="icon-bell" viewBox="0 0 20 20"><path d="M14.65 8.512c-2.28-4.907-3.466-6.771-7.191-6.693-1.327.027-1.009-.962-2.021-.587-1.01.375-.143.924-1.177 1.773-2.902 2.383-2.635 4.587-1.289 9.84.567 2.213-1.367 2.321-.602 4.465.559 1.564 4.679 2.219 9.025.607 4.347-1.613 7.086-4.814 6.527-6.378-.765-2.145-2.311-.961-3.272-3.027zm-3.726 8.083c-3.882 1.44-7.072.594-7.207.217-.232-.65 1.253-2.816 5.691-4.463 4.438-1.647 6.915-1.036 7.174-.311.153.429-1.775 3.116-5.658 4.557zm-1.248-3.494c-2.029.753-3.439 1.614-4.353 2.389.643.584 1.847.726 3.046.281 1.527-.565 2.466-1.866 2.095-2.904l-.016-.036c-.251.082-.508.171-.772.27z"/></symbol><symbol id="icon-chat" viewBox="0 0 20 20"><path d="M5.8 12.2V6H2C.9 6 0 6.9 0 8v6c0 1.1.9 2 2 2h1v3l3-3h5c1.1 0 2-.9 2-2v-1.82a.943.943 0 0 1-.2.021h-7V12.2zM18 1H9c-1.1 0-2 .9-2 2v8h7l3 3v-3h1c1.1 0 2-.899 2-2V3c0-1.1-.9-2-2-2z"/></symbol></svg>